<svg width="27" height="27" viewBox="0 0 27 27" fill="none" xmlns="http://www.w3.org/2000/svg">
<path d="M20.212 7.37784L18.1533 5.31909C16.4152 3.58097 15.5467 2.71134 14.4183 2.38847C13.2899 2.06447 12.0918 2.34122 9.69665 2.89472L8.31515 3.21309C6.29915 3.67772 5.29115 3.91059 4.6004 4.60022C3.91078 5.29097 3.6779 6.29897 3.21328 8.31497L2.89378 9.69647C2.3414 12.0927 2.06465 13.2897 2.38753 14.4181C2.71153 15.5465 3.58115 16.415 5.31928 18.1531L7.37803 20.2118C10.4043 23.2392 11.9163 24.7501 13.795 24.7501C15.6749 24.7501 17.1869 23.237 20.212 20.2118C23.2394 17.1867 24.7503 15.6747 24.7503 13.7948C24.7503 11.9161 23.2372 10.403 20.212 7.37784Z" fill="#905DE8"/>
<path d="M12.5405 16.1192C11.7834 15.3632 11.7902 14.2764 12.2424 13.4158C12.1302 13.2537 12.0783 13.0574 12.0957 12.861C12.1131 12.6646 12.1988 12.4804 12.3378 12.3406C12.4768 12.2008 12.6604 12.1141 12.8567 12.0955C13.0531 12.077 13.2497 12.1277 13.4124 12.2391C13.7949 12.0366 14.2145 11.9286 14.633 11.9331C14.8568 11.9351 15.0706 12.026 15.2274 12.1857C15.3841 12.3455 15.471 12.5609 15.4689 12.7847C15.4668 13.0085 15.3759 13.2222 15.2162 13.379C15.0565 13.5357 14.8411 13.6226 14.6173 13.6206C14.3568 13.6302 14.1106 13.7422 13.9322 13.9322C13.4968 14.3676 13.6115 14.8041 13.733 14.9267C13.8568 15.0493 14.2922 15.1629 14.7275 14.7276C15.6095 13.8456 17.1328 13.5531 18.1093 14.5284C18.8664 15.2856 18.8597 16.3723 18.4063 17.2329C18.5178 17.3951 18.5692 17.5911 18.5514 17.7871C18.5337 17.9831 18.448 18.1668 18.3092 18.3063C18.1703 18.4458 17.9871 18.5323 17.7912 18.551C17.5953 18.5697 17.399 18.5193 17.2363 18.4086C16.7314 18.6855 16.1459 18.7777 15.5803 18.6696C15.4717 18.6472 15.3686 18.6038 15.2768 18.5416C15.185 18.4794 15.1064 18.3998 15.0454 18.3072C14.9844 18.2147 14.9422 18.111 14.9212 18.0022C14.9003 17.8933 14.901 17.7814 14.9233 17.6728C14.9456 17.5642 14.9891 17.4611 15.0512 17.3693C15.1134 17.2775 15.193 17.1989 15.2856 17.1379C15.3782 17.0769 15.4818 17.0347 15.5907 17.0137C15.6995 16.9928 15.8115 16.9935 15.92 17.0158C16.1192 17.0574 16.4409 16.9922 16.7165 16.7166C17.153 16.2801 17.0383 15.8447 16.9157 15.7221C16.793 15.5994 16.3577 15.4858 15.9212 15.9212C15.0392 16.8032 13.5159 17.0957 12.5405 16.1192ZM11.2738 11.5798C11.4887 11.3722 11.6601 11.124 11.778 10.8495C11.8959 10.575 11.958 10.2797 11.9606 9.98098C11.9632 9.68222 11.9063 9.38594 11.7931 9.10943C11.68 8.83291 11.5129 8.58169 11.3017 8.37043C11.0904 8.15917 10.8392 7.99211 10.5627 7.87897C10.2862 7.76584 9.9899 7.70891 9.69114 7.71151C9.39239 7.7141 9.09714 7.77617 8.82264 7.89409C8.54813 8.01201 8.29985 8.18342 8.09229 8.39832C7.68244 8.82268 7.45565 9.39103 7.46078 9.98098C7.4659 10.5709 7.70254 11.1352 8.1197 11.5524C8.53687 11.9696 9.1012 12.2062 9.69114 12.2113C10.2811 12.2164 10.8494 11.9897 11.2738 11.5798Z" fill="white"/>
</svg>
